<svg xmlns="http://www.w3.org/2000/svg" width="340.5" height="53.863" viewBox="0 0 340.5 53.863">
    <defs>
        <style>
            .cls-1{fill:none;stroke:#12110b;stroke-width:2px}.cls-2{fill:#12110b}.cls-3{fill:#241f20}.cls-4{fill:#251e1f}.cls-5{fill:#6b6869}.cls-6{fill:#bc182b;stroke:#bc182b}
        </style>
    </defs>
    <g id="Grupo_171" data-name="Grupo 171" transform="translate(194.162 -290.072)">
        <path id="Línea_92" d="M0 0v53.271" class="cls-1" data-name="Línea 92" transform="translate(10.364 290.148)"/>
        <path id="Trazado_537" d="M-154.977 307.807a21.552 21.552 0 0 0-21.529 21.526 21.552 21.552 0 0 0 21.529 21.529 21.552 21.552 0 0 0 21.527-21.529 21.552 21.552 0 0 0-21.527-21.526m0 44.273a22.772 22.772 0 0 1-22.747-22.747 22.769 22.769 0 0 1 22.747-22.744 22.77 22.77 0 0 1 22.744 22.744 22.773 22.773 0 0 1-22.744 22.747" class="cls-2" data-name="Trazado 537" transform="translate(-12.291 -12.293)"/>
        <path id="Trazado_538" d="M-167.267 291.366a25.7 25.7 0 0 0-25.678 25.674 25.705 25.705 0 0 0 25.678 25.674 25.7 25.7 0 0 0 25.674-25.674 25.7 25.7 0 0 0-25.674-25.674m0 52.568a26.923 26.923 0 0 1-26.895-26.894 26.923 26.923 0 0 1 26.895-26.893 26.923 26.923 0 0 1 26.892 26.893 26.923 26.923 0 0 1-26.892 26.894" class="cls-2" data-name="Trazado 538"/>
        <path id="Trazado_539" d="M-110.137 357.27h-8.68a11.208 11.208 0 0 0 8.662-10.456c0-.17-.006-.344-.014-.513h-4.319c0 .05.006.1.006.149a6.733 6.733 0 0 1-4.955 6.441V346.3h-3.8v6.59a6.73 6.73 0 0 1-4.952-6.441v-.149h-4.288c-.008.17-.013.344-.013.513a11.133 11.133 0 0 0 8.618 10.456h-8.643v3.851h8.738a11.138 11.138 0 0 0-8.713 10.478c0 .171 0 .344.013.513h4.288v-.151a6.725 6.725 0 0 1 4.952-6.437v6.531h3.8v-6.531a6.729 6.729 0 0 1 4.955 6.437c0 .051 0 .1-.006.151h4.319c.008-.169.014-.342.014-.513a11.208 11.208 0 0 0-8.754-10.478h8.772z" class="cls-3" data-name="Trazado 539" transform="translate(-46.097 -41.986)"/>
        <path id="Trazado_540" d="M62.973 293.584h4.489v14.937c0 3.447.215 7.433 6.031 7.433s6.032-3.987 6.032-7.433v-14.937h4.49v16.407c0 6.574-4.2 9.841-10.522 9.841s-10.52-3.267-10.52-9.841z" class="cls-4" data-name="Trazado 540" transform="translate(-192.259 -2.569)"/>
        <path id="Trazado_541" d="M276.777 317.572h-4.49v-14.937c0-3.448-.214-7.434-6.031-7.434s-6.033 3.986-6.033 7.434v14.937h-4.489v-16.407c0-6.575 4.2-9.841 10.522-9.841s10.521 3.266 10.521 9.841z" class="cls-4" data-name="Trazado 541" transform="translate(-336.386 -.88)"/>
        <path id="Trazado_542" d="M161.008 293.584h20.749v3.876h-8.148v21.76h-4.487v-21.76h-8.114z" class="cls-4" data-name="Trazado 542" transform="translate(-265.559 -2.569)"/>
        <path id="Trazado_543" d="M416.743 305.465v-.071a5.643 5.643 0 0 0 3.663-5.46c0-4.273-3.018-6.354-7.613-6.354h-12.46v25.637h11.778c6.642 0 9.443-3.125 9.443-7.145 0-3.483-1.687-5.926-4.811-6.607m-3.986 10.09h-7.935v-18.313h7.325c2.441 0 3.77.934 3.77 3.519a3.435 3.435 0 0 1-3.77 3.557h-7.568v3.23h8.179c2.729 0 4.308 1.436 4.308 3.948 0 2.588-1.579 4.059-4.308 4.059" class="cls-5" data-name="Trazado 543" transform="translate(-444.501 -2.566)"/>
        <path id="Trazado_544" d="M513.361 291.324c-6.319 0-10.521 3.266-10.521 9.841v16.406h4.488v-6.819h12.064v6.819h4.489v-16.406c0-6.575-4.2-9.841-10.52-9.841m-6.033 16.009v-4.7c0-3.446.214-7.434 6.033-7.434s6.031 3.988 6.031 7.434v4.7z" class="cls-5" data-name="Trazado 544" transform="translate(-521.145 -.88)"/>
        <path id="Trazado_545" d="M361.768 375.158a2.917 2.917 0 0 1 2.892 2.9 2.71 2.71 0 0 1-.847 2.012 2.814 2.814 0 0 1-2.045.829 2.878 2.878 0 0 1-2.018-4.9 2.751 2.751 0 0 1 2.018-.84" class="cls-4" data-name="Trazado 545" transform="translate(-413.534 -63.562)"/>
        <g id="Grupo_167" data-name="Grupo 167" transform="translate(-129.427 326.877)">
            <path id="Trazado_546" d="M63.106 440.555v3.137c0 1.187.527 1.69 1.234 1.69.786 0 1.29-.52 1.29-1.69v-3.137h.691v3.089c0 1.627-.857 2.3-2 2.3-1.085 0-1.9-.621-1.9-2.264v-3.121z" class="cls-2" data-name="Trazado 546" transform="translate(-62.414 -439.336)"/>
            <path id="Trazado_547" d="M82.608 445.853v-5.3h.746l1.7 2.68a15.1 15.1 0 0 1 .95 1.722l.016-.007a23.56 23.56 0 0 1-.079-2.179v-2.216h.646v5.3h-.692l-1.682-2.688a16.967 16.967 0 0 1-.991-1.769l-.024.009c.04.668.055 1.3.055 2.185v2.263z" class="cls-2" data-name="Trazado 547" transform="translate(-77.513 -439.336)"/>
            <path id="Trazado_548" d="M103.794 440.555v5.3h-.684v-5.3z" class="cls-2" data-name="Trazado 548" transform="translate(-92.842 -439.336)"/>
            <path id="Trazado_549" d="M110.045 445.853l-1.73-5.3h.739l.825 2.61c.228.716.424 1.36.566 1.981h.016c.149-.613.369-1.281.606-1.973l.9-2.618h.73l-1.894 5.3z" class="cls-2" data-name="Trazado 549" transform="translate(-96.734 -439.336)"/>
            <path id="Trazado_550" d="M130.691 443.37h-2.06v1.909h2.295v.574h-2.979v-5.3h2.861v.574h-2.177v1.673h2.06z" class="cls-2" data-name="Trazado 550" transform="translate(-111.413 -439.336)"/>
            <path id="Trazado_551" d="M143.278 440.509a7.105 7.105 0 0 1 1.313-.11 2.167 2.167 0 0 1 1.533.432 1.323 1.323 0 0 1 .417 1.006 1.393 1.393 0 0 1-1 1.353v.023a1.321 1.321 0 0 1 .779 1.069 8.447 8.447 0 0 0 .408 1.454h-.708a6.945 6.945 0 0 1-.353-1.265c-.157-.731-.44-1.006-1.061-1.03h-.645v2.295h-.684zm.684 2.413h.7c.731 0 1.2-.4 1.2-1.006 0-.684-.5-.983-1.219-.99a2.817 2.817 0 0 0-.676.063z" class="cls-2" data-name="Trazado 551" transform="translate(-122.876 -439.219)"/>
            <path id="Trazado_552" d="M159.156 444.763a2.422 2.422 0 0 0 1.226.347c.7 0 1.109-.37 1.109-.9 0-.5-.283-.778-1-1.053-.864-.306-1.4-.754-1.4-1.5a1.526 1.526 0 0 1 1.714-1.438 2.411 2.411 0 0 1 1.171.259l-.188.558a2.122 2.122 0 0 0-1.006-.251c-.724 0-1 .432-1 .794 0 .5.322.739 1.053 1.022.9.347 1.352.779 1.352 1.557 0 .817-.606 1.524-1.856 1.524a2.729 2.729 0 0 1-1.351-.338z" class="cls-2" data-name="Trazado 552" transform="translate(-134.619 -439.08)"/>
            <path id="Trazado_553" d="M176.088 440.555v5.3h-.688v-5.3z" class="cls-2" data-name="Trazado 553" transform="translate(-146.897 -439.336)"/>
            <path id="Trazado_554" d="M182.85 440.509a9.758 9.758 0 0 1 1.454-.11 3.031 3.031 0 0 1 2.146.661 2.44 2.44 0 0 1 .746 1.9 2.8 2.8 0 0 1-.762 2.06 3.263 3.263 0 0 1-2.342.762 10.806 10.806 0 0 1-1.243-.063zm.684 4.685a4.3 4.3 0 0 0 .691.04 2.037 2.037 0 0 0 2.256-2.249 1.89 1.89 0 0 0-2.146-2.044 3.878 3.878 0 0 0-.8.071z" class="cls-2" data-name="Trazado 554" transform="translate(-152.463 -439.219)"/>
            <path id="Trazado_555" d="M203.272 444.187l-.55 1.666h-.708l1.8-5.3h.826l1.808 5.3h-.731l-.565-1.666zm1.738-.535l-.52-1.525c-.117-.347-.2-.661-.275-.967h-.015c-.079.314-.165.636-.267.959l-.519 1.533z" class="cls-2" data-name="Trazado 555" transform="translate(-166.792 -439.336)"/>
            <path id="Trazado_556" d="M222.675 440.509a9.758 9.758 0 0 1 1.454-.11 3.031 3.031 0 0 1 2.146.661 2.44 2.44 0 0 1 .746 1.9 2.8 2.8 0 0 1-.762 2.06 3.263 3.263 0 0 1-2.342.762 10.806 10.806 0 0 1-1.243-.063zm.684 4.685a4.3 4.3 0 0 0 .691.04 2.037 2.037 0 0 0 2.257-2.249 1.89 1.89 0 0 0-2.146-2.044 3.878 3.878 0 0 0-.8.071z" class="cls-2" data-name="Trazado 556" transform="translate(-182.24 -439.219)"/>
            <path id="Trazado_557" d="M249.249 441.137h-1.612v-.582h3.922v.582h-1.619v4.716h-.691z" class="cls-2" data-name="Trazado 557" transform="translate(-200.904 -439.336)"/>
            <path id="Trazado_558" d="M268.268 443.37h-2.06v1.909h2.292v.574h-2.978v-5.3h2.861v.574h-2.178v1.673h2.06z" class="cls-2" data-name="Trazado 558" transform="translate(-214.279 -439.336)"/>
            <path id="Trazado_559" d="M283.625 445.424a3.409 3.409 0 0 1-1.4.251 2.476 2.476 0 0 1-2.617-2.681 2.637 2.637 0 0 1 2.768-2.782 2.839 2.839 0 0 1 1.257.236l-.165.558a2.48 2.48 0 0 0-1.069-.221 1.97 1.97 0 0 0-2.067 2.185 1.925 1.925 0 0 0 2.035 2.13 2.737 2.737 0 0 0 1.116-.22z" class="cls-2" data-name="Trazado 559" transform="translate(-224.809 -439.08)"/>
            <path id="Trazado_560" d="M298.927 445.853v-5.3h.747l1.7 2.68a14.991 14.991 0 0 1 .951 1.722l.016-.007a23.56 23.56 0 0 1-.079-2.179v-2.216h.645v5.3h-.691l-1.683-2.688a17.008 17.008 0 0 1-.99-1.769l-.023.009c.039.668.055 1.3.055 2.185v2.263z" class="cls-2" data-name="Trazado 560" transform="translate(-239.254 -439.336)"/>
            <path id="Trazado_561" d="M323.03 442.893a2.483 2.483 0 0 1-2.46 2.791 2.429 2.429 0 0 1-2.382-2.69 2.516 2.516 0 0 1 2.461-2.782 2.413 2.413 0 0 1 2.381 2.681zm-4.112.086c0 1.132.614 2.147 1.69 2.147s1.7-1 1.7-2.2c0-1.053-.55-2.154-1.689-2.154s-1.701 1.044-1.701 2.207z" class="cls-2" data-name="Trazado 561" transform="translate(-253.655 -439.08)"/>
            <path id="Trazado_562" d="M340.9 440.555h.684v4.724h2.264v.574H340.9z" class="cls-2" data-name="Trazado 562" transform="translate(-270.639 -439.336)"/>
            <path id="Trazado_563" d="M359.207 439.537a2.483 2.483 0 0 1-2.461 2.791 2.429 2.429 0 0 1-2.381-2.69 2.516 2.516 0 0 1 2.461-2.782 2.413 2.413 0 0 1 2.381 2.681zm-4.112.086c0 1.132.613 2.147 1.69 2.147s1.7-1 1.7-2.2c0-1.053-.55-2.154-1.689-2.154s-1.696 1.044-1.696 2.207zm2.838-3.9l-1 .912h-.567l.731-.912z" class="cls-2" data-name="Trazado 563" transform="translate(-280.704 -435.724)"/>
            <path id="Trazado_564" d="M380.179 445.454a4.957 4.957 0 0 1-1.628.291 2.489 2.489 0 0 1-2.72-2.674 2.659 2.659 0 0 1 2.87-2.735 3.288 3.288 0 0 1 1.32.243l-.165.558a2.755 2.755 0 0 0-1.171-.228 1.981 1.981 0 0 0-2.13 2.131 1.941 1.941 0 0 0 2.044 2.137 2.24 2.24 0 0 0 .912-.141v-1.58h-1.077v-.55h1.746z" class="cls-2" data-name="Trazado 564" transform="translate(-296.754 -439.172)"/>
            <path id="Trazado_565" d="M397.893 440.555v5.3h-.683v-5.3z" class="cls-2" data-name="Trazado 565" transform="translate(-312.739 -439.336)"/>
            <path id="Trazado_566" d="M407.428 445.424a3.408 3.408 0 0 1-1.4.251 2.476 2.476 0 0 1-2.617-2.681 2.637 2.637 0 0 1 2.767-2.782 2.839 2.839 0 0 1 1.257.236l-.165.558a2.481 2.481 0 0 0-1.069-.221 1.97 1.97 0 0 0-2.067 2.185 1.925 1.925 0 0 0 2.035 2.13 2.737 2.737 0 0 0 1.117-.22z" class="cls-2" data-name="Trazado 566" transform="translate(-317.376 -439.08)"/>
            <path id="Trazado_567" d="M422.4 444.187l-.551 1.666h-.707l1.8-5.3h.825l1.809 5.3h-.732l-.566-1.666zm1.737-.535l-.519-1.525c-.117-.347-.2-.661-.275-.967h-.016c-.079.314-.166.636-.268.959l-.518 1.533z" class="cls-2" data-name="Trazado 567" transform="translate(-330.633 -439.336)"/>
            <path id="Trazado_568" d="M448.407 445.853v-5.3h.747l1.7 2.68a14.991 14.991 0 0 1 .952 1.722l.016-.007a23.56 23.56 0 0 1-.079-2.179v-2.216h.644v5.3h-.691l-1.683-2.688a16.824 16.824 0 0 1-.99-1.769l-.023.004c.039.668.055 1.3.055 2.185v2.263z" class="cls-2" data-name="Trazado 568" transform="translate(-351.019 -439.336)"/>
            <path id="Trazado_569" d="M468.579 444.187l-.55 1.666h-.708l1.8-5.3h.826l1.808 5.3h-.731l-.565-1.666zm1.738-.535l-.52-1.525c-.117-.347-.2-.661-.275-.967h-.016c-.079.314-.165.636-.267.959l-.519 1.533z" class="cls-2" data-name="Trazado 569" transform="translate(-365.161 -439.336)"/>
            <path id="Trazado_570" d="M490.754 445.424a3.407 3.407 0 0 1-1.4.251 2.476 2.476 0 0 1-2.617-2.681 2.637 2.637 0 0 1 2.768-2.782 2.838 2.838 0 0 1 1.257.236l-.165.558a2.481 2.481 0 0 0-1.069-.221 1.97 1.97 0 0 0-2.067 2.185 1.925 1.925 0 0 0 2.035 2.13 2.736 2.736 0 0 0 1.117-.22z" class="cls-2" data-name="Trazado 570" transform="translate(-379.678 -439.08)"/>
            <path id="Trazado_571" d="M506.741 440.555v5.3h-.684v-5.3z" class="cls-2" data-name="Trazado 571" transform="translate(-394.124 -439.336)"/>
            <path id="Trazado_572" d="M517.1 442.893a2.482 2.482 0 0 1-2.46 2.791 2.429 2.429 0 0 1-2.382-2.69 2.517 2.517 0 0 1 2.46-2.782 2.413 2.413 0 0 1 2.382 2.681zm-4.111.086c0 1.132.612 2.147 1.689 2.147s1.7-1 1.7-2.2c0-1.053-.55-2.154-1.69-2.154s-1.699 1.044-1.699 2.207z" class="cls-2" data-name="Trazado 572" transform="translate(-398.759 -439.08)"/>
            <path id="Trazado_573" d="M534.975 445.853v-5.3h.746l1.7 2.68a15.1 15.1 0 0 1 .951 1.722l.016-.007a23.56 23.56 0 0 1-.079-2.179v-2.216h.645v5.3h-.692l-1.682-2.688a16.849 16.849 0 0 1-.99-1.769l-.025.009c.04.668.056 1.3.056 2.185v2.263z" class="cls-2" data-name="Trazado 573" transform="translate(-415.745 -439.336)"/>
            <path id="Trazado_574" d="M555.146 444.187l-.55 1.666h-.708l1.8-5.3h.826l1.808 5.3h-.731l-.566-1.666zm1.738-.535l-.519-1.525c-.118-.347-.2-.661-.276-.967h-.015c-.079.314-.165.636-.267.959l-.52 1.533z" class="cls-2" data-name="Trazado 574" transform="translate(-429.887 -439.336)"/>
            <path id="Trazado_575" d="M574.547 440.555h.684v4.724h2.269v.574h-2.949z" class="cls-2" data-name="Trazado 575" transform="translate(-445.333 -439.336)"/>
        </g>
        <g id="Grupo_168" data-name="Grupo 168" transform="translate(-123.773 337.444)">
            <path id="Trazado_576" d="M84.82 477.949h2.853v.574H85.5v1.76h2v.567h-2v2.4h-.68z" class="cls-2" data-name="Trazado 576" transform="translate(-84.82 -477.862)"/>
            <path id="Trazado_577" d="M97.98 481.581l-.55 1.667h-.708l1.8-5.3h.826l1.808 5.3h-.731l-.565-1.667zm1.738-.535l-.52-1.525c-.117-.346-.2-.661-.275-.967h-.016a15.75 15.75 0 0 1-.267.959l-.519 1.533z" class="cls-2" data-name="Trazado 577" transform="translate(-93.719 -477.862)"/>
            <path id="Trazado_578" d="M120.153 482.818a3.4 3.4 0 0 1-1.4.252 2.477 2.477 0 0 1-2.618-2.681 2.637 2.637 0 0 1 2.768-2.783 2.844 2.844 0 0 1 1.257.235l-.16.559a2.5 2.5 0 0 0-1.069-.22 1.97 1.97 0 0 0-2.068 2.185 1.926 1.926 0 0 0 2.036 2.131 2.749 2.749 0 0 0 1.116-.221z" class="cls-2" data-name="Trazado 578" transform="translate(-108.234 -477.606)"/>
            <path id="Trazado_579" d="M136.119 477.949v3.137c0 1.187.527 1.689 1.234 1.689.786 0 1.29-.518 1.29-1.689v-3.137h.691v3.089c0 1.627-.857 2.3-2 2.3-1.085 0-1.9-.621-1.9-2.264v-3.121z" class="cls-2" data-name="Trazado 579" transform="translate(-122.659 -477.862)"/>
            <path id="Trazado_580" d="M155.621 477.949h.683v4.725h2.263v.574h-2.947z" class="cls-2" data-name="Trazado 580" transform="translate(-137.758 -477.862)"/>
            <path id="Trazado_581" d="M166.7 478.531h-1.612v-.582h3.923v.582h-1.619v4.717h-.692z" class="cls-2" data-name="Trazado 581" transform="translate(-144.838 -477.862)"/>
            <path id="Trazado_582" d="M180.528 481.581l-.551 1.667h-.707l1.8-5.3h.825l1.809 5.3h-.731l-.566-1.667zm1.737-.535l-.518-1.525c-.118-.346-.2-.661-.276-.967h-.015c-.079.314-.166.637-.268.959l-.519 1.533z" class="cls-2" data-name="Trazado 582" transform="translate(-155.441 -477.862)"/>
            <path id="Trazado_583" d="M199.93 477.9a9.761 9.761 0 0 1 1.454-.11 3.036 3.036 0 0 1 2.146.66 2.442 2.442 0 0 1 .746 1.9 2.8 2.8 0 0 1-.762 2.06 3.265 3.265 0 0 1-2.343.763 11.209 11.209 0 0 1-1.242-.063zm.683 4.686a4.332 4.332 0 0 0 .692.038 2.037 2.037 0 0 0 2.257-2.248 1.89 1.89 0 0 0-2.146-2.044 3.879 3.879 0 0 0-.8.071z" class="cls-2" data-name="Trazado 583" transform="translate(-170.887 -477.746)"/>
            <path id="Trazado_584" d="M227.288 477.9a7.123 7.123 0 0 1 1.313-.11 2.161 2.161 0 0 1 1.533.433 1.317 1.317 0 0 1 .417 1.006 1.389 1.389 0 0 1-1 1.351v.024a1.32 1.32 0 0 1 .779 1.069 8.407 8.407 0 0 0 .408 1.454h-.707a6.79 6.79 0 0 1-.354-1.266c-.157-.731-.441-1.006-1.062-1.03h-.644v2.3h-.684zm.684 2.413h.7c.731 0 1.194-.4 1.194-1.006 0-.683-.5-.983-1.219-.99a2.8 2.8 0 0 0-.675.063z" class="cls-2" data-name="Trazado 584" transform="translate(-191.343 -477.746)"/>
            <path id="Trazado_585" d="M246.8 480.763h-2.06v1.911h2.3v.574h-2.98v-5.3h2.861v.574h-2.177v1.678h2.06z" class="cls-2" data-name="Trazado 585" transform="translate(-203.876 -477.862)"/>
            <path id="Trazado_586" d="M262.485 482.849a4.93 4.93 0 0 1-1.627.291 2.487 2.487 0 0 1-2.719-2.672 2.657 2.657 0 0 1 2.869-2.736 3.265 3.265 0 0 1 1.32.244l-.164.558a2.741 2.741 0 0 0-1.171-.228 1.982 1.982 0 0 0-2.131 2.13 1.943 1.943 0 0 0 2.044 2.139 2.226 2.226 0 0 0 .912-.142v-1.58h-1.078v-.553h1.745z" class="cls-2" data-name="Trazado 586" transform="translate(-214.409 -477.7)"/>
            <path id="Trazado_587" d="M280.2 477.949v5.3h-.684v-5.3z" class="cls-2" data-name="Trazado 587" transform="translate(-230.392 -477.862)"/>
            <path id="Trazado_588" d="M290.557 480.287a2.482 2.482 0 0 1-2.461 2.79 2.429 2.429 0 0 1-2.382-2.688 2.518 2.518 0 0 1 2.461-2.783 2.412 2.412 0 0 1 2.382 2.681zm-4.111.087c0 1.132.613 2.145 1.69 2.145s1.7-1 1.7-2.2c0-1.053-.55-2.154-1.69-2.154s-1.7 1.045-1.7 2.209z" class="cls-2" data-name="Trazado 588" transform="translate(-235.027 -477.606)"/>
            <path id="Trazado_589" d="M308.433 483.248v-5.3h.746l1.7 2.681a15.056 15.056 0 0 1 .951 1.722l.016-.009a23.502 23.502 0 0 1-.079-2.177v-2.217h.645v5.3h-.692l-1.682-2.689a16.86 16.86 0 0 1-.99-1.768l-.025.007c.04.669.056 1.305.056 2.186v2.264z" class="cls-2" data-name="Trazado 589" transform="translate(-252.014 -477.862)"/>
            <path id="Trazado_590" d="M328.607 481.581l-.55 1.667h-.707l1.8-5.3h.825l1.809 5.3h-.731l-.566-1.667zm1.737-.535l-.518-1.525c-.118-.346-.2-.661-.275-.967h-.015c-.079.314-.166.637-.268.959l-.519 1.533z" class="cls-2" data-name="Trazado 590" transform="translate(-266.158 -477.862)"/>
            <path id="Trazado_591" d="M348.008 477.949h.683v4.725h2.264v.574h-2.948z" class="cls-2" data-name="Trazado 591" transform="translate(-281.604 -477.862)"/>
            <path id="Trazado_592" d="M369.322 477.9a6.61 6.61 0 0 1 1.25-.11 2.189 2.189 0 0 1 1.454.386 1.11 1.11 0 0 1 .439.935 1.259 1.259 0 0 1-.9 1.164v.016a1.365 1.365 0 0 1 1.093 1.328 1.431 1.431 0 0 1-.448 1.062 2.661 2.661 0 0 1-1.831.5 7.988 7.988 0 0 1-1.061-.063zm.683 2.169h.621c.724 0 1.148-.376 1.148-.887 0-.621-.472-.865-1.164-.865a2.928 2.928 0 0 0-.605.047zm0 2.539a3.552 3.552 0 0 0 .574.031c.708 0 1.36-.259 1.36-1.029 0-.724-.62-1.022-1.367-1.022h-.567z" class="cls-2" data-name="Trazado 592" transform="translate(-297.541 -477.746)"/>
            <path id="Trazado_593" d="M386.871 477.949v3.137c0 1.187.527 1.689 1.235 1.689.786 0 1.289-.518 1.289-1.689v-3.137h.692v3.089c0 1.627-.858 2.3-2.006 2.3-1.085 0-1.9-.621-1.9-2.264v-3.121z" class="cls-2" data-name="Trazado 593" transform="translate(-310.145 -477.862)"/>
            <path id="Trazado_594" d="M409.116 480.763h-2.06v1.911h2.3v.574h-2.979v-5.3h2.861v.574h-2.178v1.678h2.06z" class="cls-2" data-name="Trazado 594" transform="translate(-325.244 -477.862)"/>
            <path id="Trazado_595" d="M421.7 483.248v-5.3h.747l1.7 2.681a14.991 14.991 0 0 1 .951 1.722l.016-.009a23.502 23.502 0 0 1-.079-2.177v-2.217h.645v5.3h-.691l-1.683-2.689a17.062 17.062 0 0 1-.99-1.768l-.023.007c.039.669.054 1.305.054 2.186v2.264z" class="cls-2" data-name="Trazado 595" transform="translate(-336.706 -477.862)"/>
            <path id="Trazado_596" d="M445.8 480.287a2.482 2.482 0 0 1-2.461 2.79 2.429 2.429 0 0 1-2.382-2.688 2.517 2.517 0 0 1 2.461-2.783 2.413 2.413 0 0 1 2.382 2.681zm-4.112.087c0 1.132.614 2.145 1.69 2.145s1.7-1 1.7-2.2c0-1.053-.55-2.154-1.69-2.154s-1.696 1.045-1.696 2.209z" class="cls-2" data-name="Trazado 596" transform="translate(-351.105 -477.606)"/>
            <path id="Trazado_597" d="M462.791 482.158a2.417 2.417 0 0 0 1.226.345c.7 0 1.109-.369 1.109-.9 0-.5-.283-.779-1-1.054-.865-.307-1.4-.755-1.4-1.5a1.526 1.526 0 0 1 1.713-1.439 2.4 2.4 0 0 1 1.172.26l-.188.558a2.112 2.112 0 0 0-1.006-.252c-.724 0-1 .432-1 .794 0 .5.322.738 1.053 1.022.9.345 1.353.778 1.353 1.556 0 .817-.606 1.526-1.856 1.526a2.746 2.746 0 0 1-1.352-.339z" class="cls-2" data-name="Trazado 597" transform="translate(-367.298 -477.606)"/>
            <path id="Trazado_598" d="M485.315 481.581l-.551 1.667h-.707l1.8-5.3h.825l1.809 5.3h-.731l-.566-1.667zm1.737-.535l-.519-1.525c-.117-.346-.2-.661-.275-.967h-.016a15.77 15.77 0 0 1-.268.959l-.518 1.533z" class="cls-2" data-name="Trazado 598" transform="translate(-383.327 -477.862)"/>
            <path id="Trazado_599" d="M505.4 477.949v5.3h-.684v-5.3z" class="cls-2" data-name="Trazado 599" transform="translate(-398.776 -477.862)"/>
            <path id="Trazado_600" d="M512.167 477.9a7.094 7.094 0 0 1 1.313-.11 2.166 2.166 0 0 1 1.533.433 1.32 1.32 0 0 1 .416 1.006 1.39 1.39 0 0 1-1 1.351v.024a1.319 1.319 0 0 1 .778 1.069 8.457 8.457 0 0 0 .409 1.454h-.708a6.929 6.929 0 0 1-.354-1.266c-.157-.731-.44-1.006-1.061-1.03h-.645v2.3h-.683zm.683 2.413h.7c.731 0 1.2-.4 1.2-1.006 0-.683-.495-.983-1.218-.99a2.8 2.8 0 0 0-.676.063z" class="cls-2" data-name="Trazado 600" transform="translate(-404.345 -477.746)"/>
            <path id="Trazado_601" d="M531.675 480.763h-2.06v1.911h2.3v.574h-2.979v-5.3h2.861v.574h-2.177v1.678h2.06z" class="cls-2" data-name="Trazado 601" transform="translate(-416.88 -477.862)"/>
            <path id="Trazado_602" d="M543.373 482.158a2.424 2.424 0 0 0 1.227.345c.7 0 1.109-.369 1.109-.9 0-.5-.283-.779-1-1.054-.864-.307-1.4-.755-1.4-1.5a1.526 1.526 0 0 1 1.714-1.439 2.407 2.407 0 0 1 1.172.26l-.189.558a2.112 2.112 0 0 0-1.006-.252c-.723 0-1 .432-1 .794 0 .5.323.738 1.053 1.022.9.345 1.352.778 1.352 1.556 0 .817-.605 1.526-1.855 1.526a2.745 2.745 0 0 1-1.352-.339z" class="cls-2" data-name="Trazado 602" transform="translate(-427.549 -477.606)"/>
        </g>
        <g id="Grupo_169" data-name="Grupo 169" transform="translate(18.195 337.261)">
            <path id="Trazado_603" d="M647.661 481.717a2.193 2.193 0 0 0 1.113.314c.635 0 1.005-.336 1.005-.82 0-.449-.256-.707-.906-.956-.784-.278-1.269-.684-1.269-1.363a1.384 1.384 0 0 1 1.555-1.305 2.186 2.186 0 0 1 1.063.235l-.171.507a1.912 1.912 0 0 0-.913-.229c-.657 0-.906.392-.906.721 0 .449.292.67.956.928.813.314 1.227.707 1.227 1.413 0 .742-.549 1.384-1.683 1.384a2.5 2.5 0 0 1-1.228-.307z" class="cls-2" data-name="Trazado 603" transform="translate(-647.504 -477.407)"/>
            <path id="Trazado_604" d="M661.253 484.875a1.106 1.106 0 0 0 1.184 1.2 2.264 2.264 0 0 0 .956-.179l.107.449a2.793 2.793 0 0 1-1.149.215 1.6 1.6 0 0 1-1.7-1.741 1.677 1.677 0 0 1 1.62-1.863 1.464 1.464 0 0 1 1.427 1.627 2.414 2.414 0 0 1-.021.293zm1.841-.45a.9.9 0 0 0-.87-1.021 1.041 1.041 0 0 0-.963 1.021z" class="cls-2" data-name="Trazado 604" transform="translate(-657.336 -481.422)"/>
            <path id="Trazado_605" d="M676.825 486.382a2.3 2.3 0 0 1-.991.2 1.641 1.641 0 0 1-1.72-1.763 1.754 1.754 0 0 1 1.855-1.833 2.092 2.092 0 0 1 .87.178l-.142.486a1.454 1.454 0 0 0-.728-.165 1.3 1.3 0 0 0-.021 2.6 1.794 1.794 0 0 0 .771-.171z" class="cls-2" data-name="Trazado 605" transform="translate(-667.4 -481.446)"/>
            <path id="Trazado_606" d="M686.984 484.111c0-.407-.007-.756-.029-1.077h.549l.021.677h.028a1.036 1.036 0 0 1 .956-.757.676.676 0 0 1 .178.022v.592a.945.945 0 0 0-.214-.022.882.882 0 0 0-.843.807 1.8 1.8 0 0 0-.028.292v1.841h-.62z" class="cls-2" data-name="Trazado 606" transform="translate(-677.001 -481.422)"/>
            <path id="Trazado_607" d="M694.737 484.875a1.107 1.107 0 0 0 1.185 1.2 2.264 2.264 0 0 0 .955-.179l.107.449a2.79 2.79 0 0 1-1.148.215 1.6 1.6 0 0 1-1.7-1.741 1.677 1.677 0 0 1 1.62-1.863 1.464 1.464 0 0 1 1.427 1.627 2.386 2.386 0 0 1-.022.293zm1.84-.45a.894.894 0 0 0-.87-1.021 1.041 1.041 0 0 0-.963 1.021z" class="cls-2" data-name="Trazado 607" transform="translate(-682.371 -481.422)"/>
            <path id="Trazado_608" d="M708.214 479.336v.993h.9v.478h-.9v1.861c0 .429.121.671.471.671a1.386 1.386 0 0 0 .364-.043l.029.471a1.529 1.529 0 0 1-.556.086.873.873 0 0 1-.678-.264 1.28 1.28 0 0 1-.242-.9v-1.883h-.535v-.478h.535v-.828z" class="cls-2" data-name="Trazado 608" transform="translate(-692.038 -478.716)"/>
            <path id="Trazado_609" d="M718.408 486.487l-.05-.435h-.021a1.286 1.286 0 0 1-1.056.514.984.984 0 0 1-1.056-.992c0-.835.743-1.291 2.077-1.284v-.071a.712.712 0 0 0-.784-.8 1.717 1.717 0 0 0-.9.257l-.143-.413a2.143 2.143 0 0 1 1.134-.308c1.056 0 1.313.721 1.313 1.413v1.291a4.946 4.946 0 0 0 .057.827zm-.093-1.762c-.685-.014-1.463.107-1.463.777a.556.556 0 0 0 .592.6.859.859 0 0 0 .835-.578.653.653 0 0 0 .036-.2z" class="cls-2" data-name="Trazado 609" transform="translate(-698.885 -481.422)"/>
            <path id="Trazado_610" d="M730.17 484.111c0-.407-.007-.756-.029-1.077h.549l.021.677h.029a1.035 1.035 0 0 1 .956-.757.674.674 0 0 1 .178.022v.592a.942.942 0 0 0-.213-.022.882.882 0 0 0-.842.807 1.762 1.762 0 0 0-.029.292v1.841h-.62z" class="cls-2" data-name="Trazado 610" transform="translate(-709.291 -481.422)"/>
            <path id="Trazado_611" d="M739.971 477.36l-.87 1.02h-.449l.628-1.02zm-1.277 4.944v-3.453h.627v3.449z" class="cls-2" data-name="Trazado 611" transform="translate(-715.654 -477.238)"/>
            <path id="Trazado_612" d="M745.868 486.487l-.05-.435h-.018a1.285 1.285 0 0 1-1.056.514.984.984 0 0 1-1.056-.992c0-.835.742-1.291 2.077-1.284v-.071a.713.713 0 0 0-.785-.8 1.717 1.717 0 0 0-.9.257l-.143-.413a2.143 2.143 0 0 1 1.134-.308c1.056 0 1.314.721 1.314 1.413v1.291a4.942 4.942 0 0 0 .056.827zm-.093-1.762c-.685-.014-1.463.107-1.463.777a.556.556 0 0 0 .592.6.859.859 0 0 0 .835-.578.653.653 0 0 0 .036-.2z" class="cls-2" data-name="Trazado 612" transform="translate(-719.417 -481.422)"/>
            <path id="Trazado_613" d="M765.242 476.878v4.174c0 .307.007.657.029.892h-.563l-.028-.6h-.014a1.28 1.28 0 0 1-1.178.677 1.574 1.574 0 0 1-1.477-1.756 1.652 1.652 0 0 1 1.548-1.855 1.155 1.155 0 0 1 1.042.529h.014v-2.062zm-.627 3.018a1.088 1.088 0 0 0-.029-.264.924.924 0 0 0-.906-.728c-.65 0-1.035.572-1.035 1.334 0 .7.342 1.278 1.02 1.278a.944.944 0 0 0 .92-.749 1.076 1.076 0 0 0 .029-.271z" class="cls-2" data-name="Trazado 613" transform="translate(-733.119 -476.878)"/>
            <path id="Trazado_614" d="M777.88 484.875a1.107 1.107 0 0 0 1.185 1.2 2.264 2.264 0 0 0 .955-.179l.107.449a2.791 2.791 0 0 1-1.148.215 1.6 1.6 0 0 1-1.7-1.741 1.677 1.677 0 0 1 1.62-1.863 1.464 1.464 0 0 1 1.427 1.627 2.4 2.4 0 0 1-.021.293zm1.841-.45a.9.9 0 0 0-.87-1.021 1.041 1.041 0 0 0-.963 1.021z" class="cls-2" data-name="Trazado 614" transform="translate(-744.537 -481.422)"/>
            <path id="Trazado_615" d="M799.621 482.315a3.076 3.076 0 0 1-1.27.229 2.247 2.247 0 0 1-2.376-2.433 2.393 2.393 0 0 1 2.512-2.525 2.583 2.583 0 0 1 1.141.214l-.15.507a2.268 2.268 0 0 0-.97-.2 1.787 1.787 0 0 0-1.876 1.983 1.748 1.748 0 0 0 1.848 1.934 2.486 2.486 0 0 0 1.013-.2z" class="cls-2" data-name="Trazado 615" transform="translate(-758.515 -477.407)"/>
            <path id="Trazado_616" d="M815.544 485.781c0 .357.007.67.028.942h-.556l-.036-.564h-.014a1.3 1.3 0 0 1-1.142.642c-.543 0-1.191-.3-1.191-1.513v-2.018h.628v1.912c0 .656.2 1.1.77 1.1a.884.884 0 0 0 .885-.892v-2.12h.628z" class="cls-2" data-name="Trazado 616" transform="translate(-770.97 -481.657)"/>
            <path id="Trazado_617" d="M827.62 476.878h.627v5.065h-.627z" class="cls-2" data-name="Trazado 617" transform="translate(-782.176 -476.878)"/>
            <path id="Trazado_618" d="M833.209 479.336v.993h.9v.478h-.9v1.861c0 .429.121.671.471.671a1.39 1.39 0 0 0 .364-.043l.028.471a1.53 1.53 0 0 1-.556.086.873.873 0 0 1-.678-.264 1.279 1.279 0 0 1-.242-.9v-1.883h-.535v-.478h.535v-.828z" class="cls-2" data-name="Trazado 618" transform="translate(-785.496 -478.716)"/>
            <path id="Trazado_619" d="M845.125 485.781c0 .357.007.67.028.942h-.553l-.036-.564h-.014a1.3 1.3 0 0 1-1.142.642c-.542 0-1.191-.3-1.191-1.513v-2.018h.628v1.912c0 .656.2 1.1.77 1.1a.883.883 0 0 0 .885-.892v-2.12h.628z" class="cls-2" data-name="Trazado 619" transform="translate(-793.088 -481.657)"/>
            <path id="Trazado_620" d="M857.117 484.111c0-.407-.007-.756-.028-1.077h.549l.021.677h.029a1.036 1.036 0 0 1 .956-.757.678.678 0 0 1 .178.022v.592a.946.946 0 0 0-.214-.022.882.882 0 0 0-.843.807 1.788 1.788 0 0 0-.029.292v1.841h-.62z" class="cls-2" data-name="Trazado 620" transform="translate(-804.209 -481.422)"/>
            <path id="Trazado_621" d="M866.878 486.487l-.05-.435h-.021a1.286 1.286 0 0 1-1.056.514.984.984 0 0 1-1.056-.992c0-.835.742-1.291 2.076-1.284v-.071a.713.713 0 0 0-.785-.8 1.717 1.717 0 0 0-.9.257l-.143-.413a2.144 2.144 0 0 1 1.134-.308c1.056 0 1.314.721 1.314 1.413v1.291a4.929 4.929 0 0 0 .056.827zm-.093-1.762c-.685-.014-1.463.107-1.463.777a.556.556 0 0 0 .592.6.858.858 0 0 0 .834-.578.65.65 0 0 0 .036-.2z" class="cls-2" data-name="Trazado 621" transform="translate(-809.897 -481.422)"/>
            <path id="Trazado_622" d="M882.883 483.27l.757 2.04c.078.228.163.5.221.706h.014c.064-.206.136-.47.222-.72l.684-2.026h.664l-.942 2.461a5.272 5.272 0 0 1-1.185 2.162 1.706 1.706 0 0 1-.77.407l-.157-.529a1.63 1.63 0 0 0 .549-.306 1.9 1.9 0 0 0 .528-.7.45.45 0 0 0 .05-.15.558.558 0 0 0-.043-.164l-1.275-3.181z" class="cls-2" data-name="Trazado 622" transform="translate(-822.984 -481.657)"/>
            <path id="Trazado_623" d="M904.541 480.449h-1.869v1.734h2.084v.521h-2.7V477.9h2.6v.521h-1.976v1.52h1.869z" class="cls-2" data-name="Trazado 623" transform="translate(-837.828 -477.638)"/>
            <path id="Trazado_624" d="M914.119 483.27l.492.742c.129.192.236.371.349.564h.022c.114-.207.229-.386.343-.571l.485-.735h.677l-1.177 1.669 1.213 1.783h-.713l-.507-.778c-.136-.2-.25-.392-.372-.6h-.014c-.114.206-.235.392-.364.6l-.5.778h-.692l1.227-1.762-1.17-1.691z" class="cls-2" data-name="Trazado 624" transform="translate(-846.285 -481.657)"/>
            <path id="Trazado_625" d="M927.21 479.336v.993h.9v.478h-.9v1.861c0 .429.122.671.471.671a1.39 1.39 0 0 0 .364-.043l.028.471a1.529 1.529 0 0 1-.556.086.873.873 0 0 1-.678-.264 1.278 1.278 0 0 1-.242-.9v-1.883h-.536v-.478h.536v-.828z" class="cls-2" data-name="Trazado 625" transform="translate(-855.78 -478.716)"/>
            <path id="Trazado_626" d="M935.909 484.875a1.106 1.106 0 0 0 1.184 1.2 2.266 2.266 0 0 0 .956-.179l.107.449a2.791 2.791 0 0 1-1.148.215 1.6 1.6 0 0 1-1.7-1.741 1.677 1.677 0 0 1 1.62-1.863 1.464 1.464 0 0 1 1.427 1.627 2.409 2.409 0 0 1-.021.293zm1.84-.45a.894.894 0 0 0-.87-1.021 1.041 1.041 0 0 0-.963 1.021z" class="cls-2" data-name="Trazado 626" transform="translate(-862.694 -481.422)"/>
            <path id="Trazado_627" d="M949.7 483.968c0-.356-.007-.649-.028-.934h.557l.036.57h.014a1.269 1.269 0 0 1 1.141-.65c.478 0 1.22.286 1.22 1.471v2.061h-.627V484.5c0-.557-.207-1.021-.8-1.021a.893.893 0 0 0-.843.642.9.9 0 0 0-.043.293v2.076h-.627z" class="cls-2" data-name="Trazado 627" transform="translate(-873.437 -481.422)"/>
            <path id="Trazado_628" d="M964 485.845a1.651 1.651 0 0 0 .827.25c.457 0 .671-.229.671-.514s-.179-.464-.643-.634c-.62-.222-.913-.564-.913-.979a1.066 1.066 0 0 1 1.192-1.013 1.722 1.722 0 0 1 .849.214l-.157.457a1.343 1.343 0 0 0-.706-.2c-.371 0-.578.213-.578.47 0 .286.207.414.656.586.6.228.906.527.906 1.041 0 .607-.471 1.035-1.291 1.035a1.978 1.978 0 0 1-.97-.235z" class="cls-2" data-name="Trazado 628" transform="translate(-884.028 -481.422)"/>
            <path id="Trazado_629" d="M975.791 478.261a.389.389 0 0 1-.777 0 .383.383 0 0 1 .392-.392.372.372 0 0 1 .385.392zm-.7 4.423v-3.453h.627v3.453z" class="cls-2" data-name="Trazado 629" transform="translate(-892.381 -477.619)"/>
            <path id="Trazado_630" d="M983.62 480.549a1.688 1.688 0 0 1-1.719 1.833 1.642 1.642 0 0 1-1.656-1.776 1.687 1.687 0 0 1 1.713-1.835 1.636 1.636 0 0 1 1.662 1.778zm-2.74.036c0 .756.435 1.327 1.049 1.327.6 0 1.048-.564 1.048-1.341 0-.585-.292-1.327-1.034-1.327s-1.063.684-1.063 1.34zm1.991-3.224l-.87 1.02h-.449l.627-1.02z" class="cls-2" data-name="Trazado 630" transform="translate(-896.293 -477.238)"/>
            <path id="Trazado_631" d="M996 483.968c0-.356-.007-.649-.028-.934h.557l.036.57h.014a1.269 1.269 0 0 1 1.141-.65c.478 0 1.22.286 1.22 1.471v2.061h-.628V484.5c0-.557-.207-1.021-.8-1.021a.893.893 0 0 0-.843.642.91.91 0 0 0-.043.293v2.076H996z" class="cls-2" data-name="Trazado 631" transform="translate(-908.05 -481.422)"/>
            <path id="Trazado_632" d="M1017.1 477.9v2.848c0 1.077.478 1.533 1.121 1.533.713 0 1.17-.471 1.17-1.533V477.9h.628v2.8c0 1.476-.777 2.083-1.819 2.083-.985 0-1.726-.564-1.726-2.054V477.9z" class="cls-2" data-name="Trazado 632" transform="translate(-923.38 -477.638)"/>
            <path id="Trazado_633" d="M1033.922 483.968c0-.356-.007-.649-.029-.934h.557l.036.57h.014a1.27 1.27 0 0 1 1.141-.65c.478 0 1.22.286 1.22 1.471v2.061h-.628V484.5c0-.557-.207-1.021-.8-1.021a.893.893 0 0 0-.843.642.909.909 0 0 0-.043.293v2.076h-.627z" class="cls-2" data-name="Trazado 633" transform="translate(-936.405 -481.422)"/>
            <path id="Trazado_634" d="M1049.487 478.261a.389.389 0 0 1-.777 0 .382.382 0 0 1 .392-.392.372.372 0 0 1 .385.392zm-.7 4.423v-3.453h.627v3.453z" class="cls-2" data-name="Trazado 634" transform="translate(-947.484 -477.619)"/>
            <path id="Trazado_635" d="M1053.905 483.27l.678 1.941a8.781 8.781 0 0 1 .278.885h.021c.079-.286.179-.572.293-.885l.67-1.941h.657l-1.355 3.453h-.6l-1.313-3.453z" class="cls-2" data-name="Trazado 635" transform="translate(-950.867 -481.657)"/>
            <path id="Trazado_636" d="M1067.438 484.875a1.106 1.106 0 0 0 1.184 1.2 2.267 2.267 0 0 0 .956-.179l.107.449a2.793 2.793 0 0 1-1.148.215 1.6 1.6 0 0 1-1.7-1.741 1.677 1.677 0 0 1 1.62-1.863 1.464 1.464 0 0 1 1.427 1.627 2.4 2.4 0 0 1-.022.293zm1.841-.45a.894.894 0 0 0-.87-1.021 1.041 1.041 0 0 0-.964 1.021z" class="cls-2" data-name="Trazado 636" transform="translate(-961.038 -481.422)"/>
            <path id="Trazado_637" d="M1081.233 484.111c0-.407-.007-.756-.028-1.077h.55l.021.677h.028a1.036 1.036 0 0 1 .956-.757.676.676 0 0 1 .178.022v.592a.944.944 0 0 0-.213-.022.882.882 0 0 0-.843.807 1.8 1.8 0 0 0-.028.292v1.841h-.621z" class="cls-2" data-name="Trazado 637" transform="translate(-971.78 -481.422)"/>
            <path id="Trazado_638" d="M1089.082 485.845a1.652 1.652 0 0 0 .828.25c.456 0 .671-.229.671-.514s-.179-.464-.642-.634c-.62-.222-.913-.564-.913-.979a1.066 1.066 0 0 1 1.192-1.013 1.722 1.722 0 0 1 .849.214l-.157.457a1.344 1.344 0 0 0-.706-.2c-.372 0-.578.213-.578.47 0 .286.206.414.656.586.6.228.906.527.906 1.041 0 .607-.471 1.035-1.291 1.035a1.979 1.979 0 0 1-.97-.235z" class="cls-2" data-name="Trazado 638" transform="translate(-977.552 -481.422)"/>
            <path id="Trazado_639" d="M1100.872 478.261a.389.389 0 0 1-.778 0 .382.382 0 0 1 .392-.392.372.372 0 0 1 .386.392zm-.7 4.423v-3.453h.627v3.453z" class="cls-2" data-name="Trazado 639" transform="translate(-985.903 -477.619)"/>
            <path id="Trazado_640" d="M1105.938 479.336v.993h.9v.478h-.9v1.861c0 .429.122.671.471.671a1.388 1.388 0 0 0 .364-.043l.029.471a1.531 1.531 0 0 1-.556.086.873.873 0 0 1-.678-.264 1.278 1.278 0 0 1-.242-.9v-1.883h-.535v-.478h.535v-.828z" class="cls-2" data-name="Trazado 640" transform="translate(-989.415 -478.716)"/>
            <path id="Trazado_641" d="M1116.136 486.487l-.05-.435h-.021a1.286 1.286 0 0 1-1.056.514.984.984 0 0 1-1.056-.992c0-.835.742-1.291 2.077-1.284v-.071a.713.713 0 0 0-.785-.8 1.717 1.717 0 0 0-.9.257l-.143-.413a2.144 2.144 0 0 1 1.134-.308c1.056 0 1.313.721 1.313 1.413v1.291a4.948 4.948 0 0 0 .056.827zm-.093-1.762c-.685-.014-1.463.107-1.463.777a.556.556 0 0 0 .592.6.859.859 0 0 0 .835-.578.658.658 0 0 0 .035-.2z" class="cls-2" data-name="Trazado 641" transform="translate(-996.265 -481.422)"/>
            <path id="Trazado_642" d="M1127.894 484.111c0-.407-.007-.756-.029-1.077h.549l.021.677h.029a1.035 1.035 0 0 1 .956-.757.679.679 0 0 1 .178.022v.592a.951.951 0 0 0-.214-.022.881.881 0 0 0-.843.807 1.787 1.787 0 0 0-.028.292v1.841h-.621z" class="cls-2" data-name="Trazado 642" transform="translate(-1006.667 -481.422)"/>
            <path id="Trazado_643" d="M1137.014 478.261a.389.389 0 0 1-.777 0 .382.382 0 0 1 .392-.392.372.372 0 0 1 .385.392zm-.7 4.423v-3.453h.627v3.453z" class="cls-2" data-name="Trazado 643" transform="translate(-1012.927 -477.619)"/>
            <path id="Trazado_644" d="M1143.595 486.487l-.05-.435h-.021a1.286 1.286 0 0 1-1.056.514.984.984 0 0 1-1.056-.992c0-.835.743-1.291 2.077-1.284v-.071a.712.712 0 0 0-.785-.8 1.718 1.718 0 0 0-.9.257l-.143-.413a2.144 2.144 0 0 1 1.134-.308c1.056 0 1.313.721 1.313 1.413v1.291a4.935 4.935 0 0 0 .056.827zm-.093-1.762c-.685-.014-1.463.107-1.463.777a.556.556 0 0 0 .592.6.858.858 0 0 0 .834-.578.655.655 0 0 0 .036-.2z" class="cls-2" data-name="Trazado 644" transform="translate(-1016.796 -481.422)"/>
        </g>
        <path id="Trazado_645" d="M665.34 297.949c-.452-3.929-3.595-6.12-7.334-6.12-5.262 0-8.357 3.929-8.357 8.977 0 4.9 3.1 8.835 8.357 8.835a7.18 7.18 0 0 0 7.477-6.953h-3.619c-.286 2.237-1.571 3.809-3.857 3.809-3.357 0-4.619-2.857-4.619-5.69 0-2.976 1.262-5.833 4.619-5.833a3.672 3.672 0 0 1 3.715 2.976z" class="cls-6" data-name="Trazado 645" transform="translate(-630.913 -1.257)"/>
        <path id="Trazado_646" d="M724.753 315.872a2.666 2.666 0 0 1 2.81-2.619c1.644 0 2.381.9 2.691 2.619zm8.883 2.143c.238-3.787-1.786-7.31-5.977-7.31a6.173 6.173 0 0 0-6.287 6.5c0 3.81 2.4 6.478 6.287 6.478a5.539 5.539 0 0 0 5.763-4.144h-2.977a2.784 2.784 0 0 1-2.667 1.6c-1.881 0-2.928-.977-3.025-3.119z" class="cls-6" data-name="Trazado 646" transform="translate(-684.54 -15.371)"/>
        <path id="Trazado_647" d="M780.544 323.347h3.382v-6.453c0-2.5.786-3.524 2.62-3.524 1.571 0 2.166 1 2.166 3.025v6.953h3.382v-7.572c0-3.048-.9-5.072-4.5-5.072a4.389 4.389 0 0 0-3.761 2.048h-.071v-1.715h-3.215z" class="cls-6" data-name="Trazado 647" transform="translate(-728.783 -15.369)"/>
        <path id="Trazado_648" d="M840.05 297.4h-3.381v3.69h-2.048v2.262h2.048v7.263c0 2.451 1.81 2.928 3.881 2.928a12.921 12.921 0 0 0 1.977-.119v-2.643a5.2 5.2 0 0 1-1.048.1c-1.143 0-1.428-.286-1.428-1.429v-6.1h2.476v-2.262h-2.477z" class="cls-6" data-name="Trazado 648" transform="translate(-769.216 -5.42)"/>
        <path id="Trazado_649" d="M875.012 323.347h3.382V317.8c0-2.168.857-3.953 3.333-3.953a6.154 6.154 0 0 1 1.214.12v-3.144a2.521 2.521 0 0 0-.738-.119 4.354 4.354 0 0 0-3.929 2.619h-.047v-2.286h-3.215z" class="cls-6" data-name="Trazado 649" transform="translate(-799.416 -15.369)"/>
        <path id="Trazado_650" d="M914.54 317.2c0-1.976.69-3.952 2.977-3.952 2.31 0 3 1.977 3 3.952 0 1.953-.691 3.93-3 3.93-2.287.003-2.977-1.974-2.977-3.93zm-3.381 0c0 3.906 2.5 6.478 6.357 6.478 3.881 0 6.38-2.572 6.38-6.478 0-3.928-2.5-6.5-6.38-6.5-3.857 0-6.357 2.575-6.357 6.5z" class="cls-6" data-name="Trazado 650" transform="translate(-826.443 -15.369)"/>
        <path id="Trazado_651" d="M1009.04 304.245c0 2.023-.667 3.976-2.905 3.976-2.1 0-2.976-2.025-2.976-3.953 0-2.024.762-3.929 2.976-3.929 2.191 0 2.905 1.905 2.905 3.906zm.047 6.19h3.215v-17h-3.381v6.191h-.049a4.231 4.231 0 0 0-3.643-1.834c-3.619 0-5.452 3.072-5.452 6.382 0 3.405 1.81 6.6 5.524 6.6a4.086 4.086 0 0 0 3.739-1.905h.047z" class="cls-6" data-name="Trazado 651" transform="translate(-892.703 -2.457)"/>
        <path id="Trazado_652" d="M1063.177 315.872a2.664 2.664 0 0 1 2.81-2.619c1.643 0 2.381.9 2.691 2.619zm8.882 2.143c.237-3.787-1.786-7.31-5.977-7.31a6.173 6.173 0 0 0-6.287 6.5c0 3.81 2.4 6.478 6.287 6.478a5.539 5.539 0 0 0 5.763-4.144h-2.976a2.785 2.785 0 0 1-2.667 1.6c-1.881 0-2.928-.977-3.024-3.119z" class="cls-6" data-name="Trazado 652" transform="translate(-937.578 -15.371)"/>
        <path id="Trazado_653" d="M652.179 400.136a2.664 2.664 0 0 1 2.809-2.619c1.643 0 2.381.9 2.691 2.619zm8.882 2.144c.238-3.787-1.786-7.31-5.977-7.31a6.173 6.173 0 0 0-6.287 6.5c0 3.81 2.4 6.478 6.287 6.478a5.539 5.539 0 0 0 5.763-4.144h-2.977a2.785 2.785 0 0 1-2.668 1.6c-1.881 0-2.928-.977-3.024-3.119z" class="cls-6" data-name="Trazado 653" transform="translate(-630.276 -78.375)"/>
        <path id="Rectángulo_658" d="M0 0h7.167v2.905H0z" class="cls-6" data-name="Rectángulo 658" transform="translate(33.427 321.285)"/>
        <path id="Trazado_654" d="M750.44 394.7h12.025v-3.142h-8.286V377.7h-3.739z" class="cls-6" data-name="Trazado 654" transform="translate(-706.274 -65.459)"/>
        <path id="Trazado_655" d="M808.649 400.136a2.664 2.664 0 0 1 2.809-2.619c1.644 0 2.381.9 2.691 2.619zm8.882 2.144c.238-3.787-1.787-7.31-5.977-7.31a6.173 6.173 0 0 0-6.287 6.5c0 3.81 2.4 6.478 6.287 6.478a5.539 5.539 0 0 0 5.763-4.144h-2.977a2.785 2.785 0 0 1-2.667 1.6c-1.882 0-2.928-.977-3.024-3.119z" class="cls-6" data-name="Trazado 655" transform="translate(-747.268 -78.375)"/>
        <path id="Trazado_656" d="M866.131 399.087c.119-1.334.952-1.858 2.238-1.858 1.19 0 2.191.214 2.191 1.667 0 1.381-1.929 1.31-4 1.619-2.095.286-4.19.952-4.19 3.738 0 2.524 1.857 3.691 4.19 3.691a5.645 5.645 0 0 0 4.144-1.525 5.021 5.021 0 0 0 .238 1.191h3.429a6.305 6.305 0 0 1-.429-2.739v-6.4c0-2.953-2.952-3.5-5.4-3.5-2.762 0-5.6.952-5.787 4.12zm4.429 3.762a2.513 2.513 0 0 1-2.739 2.833c-1.1 0-2.071-.311-2.071-1.572 0-1.238.952-1.6 2-1.81 1.048-.191 2.239-.214 2.81-.714z" class="cls-6" data-name="Trazado 656" transform="translate(-789.963 -78.373)"/>
        <path id="Trazado_657" d="M921.254 407.611h3.382v-5.547c0-2.168.857-3.953 3.333-3.953a6.161 6.161 0 0 1 1.214.12v-3.144a2.509 2.509 0 0 0-.737-.119 4.354 4.354 0 0 0-3.929 2.619h-.047V395.3h-3.215z" class="cls-6" data-name="Trazado 657" transform="translate(-833.991 -78.373)"/>
        <path id="Trazado_658" d="M962.307 407.611h3.382v-6.453c0-2.5.786-3.524 2.619-3.524 1.571 0 2.166 1 2.166 3.024v6.953h3.382v-7.572c0-3.048-.9-5.072-4.5-5.072a4.391 4.391 0 0 0-3.762 2.048h-.071V395.3h-3.215z" class="cls-6" data-name="Trazado 658" transform="translate(-864.686 -78.373)"/>
        <path id="Trazado_659" d="M1024.672 377.7h-3.381v2.786h3.381zm-3.381 17h3.381v-12.313h-3.381z" class="cls-6" data-name="Trazado 659" transform="translate(-908.788 -65.46)"/>
        <path id="Trazado_660" d="M1047.9 407.611h3.382v-6.453c0-2.5.785-3.524 2.619-3.524 1.571 0 2.166 1 2.166 3.024v6.953h3.382v-7.572c0-3.048-.9-5.072-4.5-5.072a4.391 4.391 0 0 0-3.762 2.048h-.071V395.3h-3.216z" class="cls-6" data-name="Trazado 660" transform="translate(-928.686 -78.373)"/>
        <path id="Trazado_661" d="M1111.121 404.706c-2.072 0-2.738-1.929-2.738-3.691 0-1.834.833-3.5 2.738-3.5 2.191 0 2.882 1.786 2.882 3.786-.003 1.762-.953 3.405-2.882 3.405zm6.1-9.406H1114v1.644h-.048a3.83 3.83 0 0 0-3.666-1.977c-3.453 0-5.286 2.9-5.286 6.1 0 3.381 1.571 6.191 5.262 6.191a4.16 4.16 0 0 0 3.691-1.905h.047v1.62c.023 1.762-.834 3.048-2.714 3.048a2.287 2.287 0 0 1-2.524-1.691h-3.358c.167 2.81 3 3.953 5.429 3.953 5.667 0 6.381-3.429 6.381-5.453z" class="cls-6" data-name="Trazado 661" transform="translate(-971.378 -78.373)"/>
    </g>
</svg>
